<svg xmlns="http://www.w3.org/2000/svg" width="53.873" height="53.985" viewBox="0 0 53.873 53.985">
  <g id="calendar_13_" data-name="calendar (13)" transform="translate(0 -25)">
    <path id="Path_1023" data-name="Path 1023" d="M53.873,42.015V35.043c0-2.932-2.124-5.317-4.735-5.317h-.631v6.5a1.589,1.589,0,1,1-3.157,0V26.772a1.589,1.589,0,1,0-3.157,0v2.954H31.671v6.5a1.589,1.589,0,1,1-3.157,0V26.772a1.589,1.589,0,1,0-3.157,0v2.954H14.836v6.5A1.684,1.684,0,0,1,13.258,38a1.684,1.684,0,0,1-1.578-1.772V26.772A1.684,1.684,0,0,0,10.1,25a1.684,1.684,0,0,0-1.578,1.772v2.954H4.735C2.124,29.726,0,32.112,0,35.043v6.971Z" transform="translate(0 0)"/>
    <path id="Path_1024" data-name="Path 1024" d="M0,199v29.411c0,3,2.124,5.446,4.735,5.446h44.4c2.611,0,4.735-2.443,4.735-5.446V199Zm15.152,25.175H11.785a1.833,1.833,0,0,1,0-3.631h3.367a1.833,1.833,0,0,1,0,3.631Zm0-7.746H11.785a1.833,1.833,0,0,1,0-3.631h3.367a1.833,1.833,0,0,1,0,3.631Zm0-7.746H11.785a1.833,1.833,0,0,1,0-3.631h3.367a1.833,1.833,0,0,1,0,3.631ZM28.62,224.175H25.253a1.833,1.833,0,0,1,0-3.631H28.62a1.833,1.833,0,0,1,0,3.631Zm0-7.746H25.253a1.833,1.833,0,0,1,0-3.631H28.62a1.833,1.833,0,0,1,0,3.631Zm0-7.746H25.253a1.833,1.833,0,0,1,0-3.631H28.62a1.833,1.833,0,0,1,0,3.631Zm13.468,15.492H38.721a1.833,1.833,0,0,1,0-3.631h3.367a1.833,1.833,0,0,1,0,3.631Zm0-7.746H38.721a1.833,1.833,0,0,1,0-3.631h3.367a1.833,1.833,0,0,1,0,3.631Zm0-7.746H38.721a1.833,1.833,0,0,1,0-3.631h3.367a1.833,1.833,0,0,1,0,3.631Z" transform="translate(0 -154.872)"/>
  </g>
</svg>
