<svg xmlns="http://www.w3.org/2000/svg" width="66.777" height="66.917" viewBox="0 0 66.777 66.917">
  <g id="phone-call_3_" data-name="phone-call (3)" transform="translate(-0.539)">
    <g id="Group_3809" data-name="Group 3809" transform="translate(0.539 0)">
      <path id="Path_1061" data-name="Path 1061" d="M65.565,49.111l-9.339-9.339a6.211,6.211,0,0,0-10.339,2.335,6.355,6.355,0,0,1-7.337,4C31.88,44.441,22.875,35.77,21.207,28.766c-1-3,1-6.337,4-7.337a6.211,6.211,0,0,0,2.335-10.339L18.205,1.751a6.661,6.661,0,0,0-9,0L2.863,8.088c-6.337,6.67.667,24.347,16.342,40.022S52.558,71.123,59.228,64.452l6.337-6.337A6.661,6.661,0,0,0,65.565,49.111Z" transform="translate(-0.539 0)" fill="#0c1d30"/>
    </g>
  </g>
</svg>
