<svg xmlns="http://www.w3.org/2000/svg" width="28.6" height="31.7" viewBox="0 0 28.6 31.7">
  <g id="Group_3878" data-name="Group 3878" transform="translate(-6961.694 -7204.926)">
    <path id="Path_1123" data-name="Path 1123" d="M1070.367,466.627c-.375,2.388-1.891,4.133-3.385,3.9s-2.4-2.361-2.028-4.749,1.891-4.133,3.385-3.9,2.4,2.361,2.028,4.749" transform="translate(5904.598 6751.054)" stroke="navy" stroke-width="1"/>
    <path id="Path_1124" data-name="Path 1124" d="M1070.367,466.627c-.375,2.388-1.891,4.133-3.385,3.9s-2.4-2.361-2.028-4.749,1.891-4.133,3.385-3.9S1070.742,464.239,1070.367,466.627Z" transform="translate(5904.598 6751.054)" fill="none" stroke="navy" stroke-miterlimit="10" stroke-width="1.619"/>
    <path id="Path_1125" data-name="Path 1125" d="M1080.874,465.6c.441,2.377-.408,4.528-1.9,4.8s-3.051-1.426-3.492-3.8.407-4.527,1.895-4.8,3.052,1.427,3.493,3.8" transform="translate(5901.793 6751.085)" stroke="navy" stroke-width="1"/>
    <path id="Path_1126" data-name="Path 1126" d="M1080.874,465.6c.441,2.377-.408,4.528-1.9,4.8s-3.051-1.426-3.492-3.8.407-4.527,1.895-4.8S1080.433,463.227,1080.874,465.6Z" transform="translate(5901.793 6751.085)" fill="none" stroke="navy" stroke-miterlimit="10" stroke-width="1.619"/>
    <path id="Path_1127" data-name="Path 1127" d="M1075.211,479.62a1.585,1.585,0,1,1-1.584-1.627,1.606,1.606,0,0,1,1.584,1.627" transform="translate(5902.367 6745.208)" fill="navy"/>
    <path id="Path_1128" data-name="Path 1128" d="M1075.211,479.62a1.585,1.585,0,1,1-1.584-1.627A1.606,1.606,0,0,1,1075.211,479.62Z" transform="translate(5902.367 6745.208)" fill="none" stroke="#000" stroke-miterlimit="10" stroke-width="0.75"/>
    <path id="Path_1129" data-name="Path 1129" d="M1067.009,450.966c-7.124-.043-12.969,9.708-13.13,21.837a3.907,3.907,0,0,0,.033.546l-.175,6.766c.185,1.434,2.71-.773,3.884-1.723l.815-.411a1.5,1.5,0,0,1,1.623.179l1.6,1.342a2.5,2.5,0,0,0,3.342.208l1.731-1.068" transform="translate(5909 6755)" fill="none" stroke="#000" stroke-linecap="round" stroke-miterlimit="10" stroke-width="2.08"/>
    <path id="Path_1130" data-name="Path 1130" d="M1074.5,450.966c7.124-.043,12.969,9.708,13.129,21.837a3.816,3.816,0,0,1-.033.546l.176,6.766c-.185,1.434-2.711-.773-3.884-1.723l-.815-.411a1.5,1.5,0,0,0-1.623.179l-1.6,1.342a2.5,2.5,0,0,1-3.342.208l-1.731-1.068" transform="translate(5901.476 6755)" fill="none" stroke="#000" stroke-linecap="round" stroke-miterlimit="10" stroke-width="2.08"/>
    <path id="Path_1131" data-name="Path 1131" d="M1074.677,493.414a.671.671,0,1,1-.944-.122.673.673,0,0,1,.944.122" transform="translate(5901.849 6739.715)" fill="#fff"/>
  </g>
</svg>
