<svg xmlns="http://www.w3.org/2000/svg" width="36.109" height="35.458" viewBox="0 0 36.109 35.458">
  <g id="Group_3877" data-name="Group 3877" transform="translate(-7620.773 -7778.439)">
    <path id="Path_1062" data-name="Path 1062" d="M976.526,474.159a8.694,8.694,0,1,1-8.695-8.694,8.694,8.694,0,0,1,8.695,8.694" transform="translate(6678.927 7324.306)" fill="#fff"/>
    <path id="Path_1063" data-name="Path 1063" d="M976.526,474.159a8.694,8.694,0,1,1-8.695-8.694A8.694,8.694,0,0,1,976.526,474.159Z" transform="translate(6678.927 7324.306)" fill="none" stroke="#878787" stroke-miterlimit="10" stroke-width="2"/>
    <path id="Path_1064" data-name="Path 1064" d="M967.643,483.094a9.124,9.124,0,1,1,9.124-9.124,9.133,9.133,0,0,1-9.124,9.124m0-17.389a8.265,8.265,0,1,0,8.265,8.266,8.274,8.274,0,0,0-8.265-8.266" transform="translate(6679.116 7324.495)" fill="#fff"/>
    <path id="Path_1065" data-name="Path 1065" d="M967.643,483.094a9.124,9.124,0,1,1,9.124-9.124A9.133,9.133,0,0,1,967.643,483.094Zm0-17.389a8.265,8.265,0,1,0,8.265,8.266A8.274,8.274,0,0,0,967.643,465.7Z" transform="translate(6679.116 7324.495)" fill="none" stroke="#000" stroke-miterlimit="10" stroke-width="2"/>
    <path id="Path_1066" data-name="Path 1066" d="M955.905,479.585a8.694,8.694,0,1,1-8.694-8.694,8.694,8.694,0,0,1,8.694,8.694" transform="translate(6685.224 7322.649)" fill="#fff"/>
    <circle id="Ellipse_156" data-name="Ellipse 156" cx="8.694" cy="8.694" r="8.694" transform="translate(7621.976 7808.698) rotate(-76.718)" fill="none" stroke="#878787" stroke-miterlimit="10" stroke-width="2"/>
    <path id="Path_1067" data-name="Path 1067" d="M947.023,488.52a9.123,9.123,0,1,1,9.123-9.123,9.133,9.133,0,0,1-9.123,9.123m0-17.388a8.266,8.266,0,1,0,8.265,8.266,8.275,8.275,0,0,0-8.265-8.266" transform="translate(6685.413 7322.837)" fill="#fff"/>
    <path id="Path_1068" data-name="Path 1068" d="M947.023,488.52a9.123,9.123,0,1,1,9.123-9.123A9.133,9.133,0,0,1,947.023,488.52Zm0-17.388a8.266,8.266,0,1,0,8.265,8.266A8.275,8.275,0,0,0,947.023,471.132Z" transform="translate(6685.413 7322.837)" fill="none" stroke="#000" stroke-miterlimit="10" stroke-width="2"/>
    <path id="Path_1069" data-name="Path 1069" d="M952.088,468.468h-5.673a.517.517,0,0,1-.517-.517v-4.114a.517.517,0,0,1,.517-.517h5.673a.517.517,0,0,1,.517.517v4.114a.517.517,0,0,1-.517.517" transform="translate(6682.97 7324.961)"/>
    <path id="Path_1070" data-name="Path 1070" d="M951.257,465.983a.766.766,0,1,1-.766-.766.766.766,0,0,1,.766.766" transform="translate(6681.802 7324.381)" fill="#fff"/>
    <path id="Path_1071" data-name="Path 1071" d="M951.075,468.536h-.895l.222-1.462h.452Z" transform="translate(6681.663 7323.814)" fill="#fff"/>
    <path id="Path_1072" data-name="Path 1072" d="M952.735,458.009a3.146,3.146,0,1,1-3.146-3.147,3.147,3.147,0,0,1,3.146,3.147" transform="translate(6682.804 7327.543)" fill="#fff"/>
    <path id="Path_1073" data-name="Path 1073" d="M952.735,458.009a3.146,3.146,0,1,1-3.146-3.147A3.147,3.147,0,0,1,952.735,458.009Z" transform="translate(6682.804 7327.543)" fill="none" stroke="#878787" stroke-miterlimit="10" stroke-width="1"/>
    <path id="Path_1074" data-name="Path 1074" d="M949.52,461.242a3.3,3.3,0,1,1,3.3-3.3,3.306,3.306,0,0,1-3.3,3.3m0-6.293a2.991,2.991,0,1,0,2.991,2.991,2.995,2.995,0,0,0-2.991-2.991" transform="translate(6682.873 7327.612)" fill="#fff"/>
    <path id="Path_1075" data-name="Path 1075" d="M949.52,461.242a3.3,3.3,0,1,1,3.3-3.3A3.306,3.306,0,0,1,949.52,461.242Zm0-6.293a2.991,2.991,0,1,0,2.991,2.991A2.995,2.995,0,0,0,949.52,454.949Z" transform="translate(6682.873 7327.612)" fill="none" stroke="#000" stroke-miterlimit="10" stroke-width="1"/>
    <path id="Path_1076" data-name="Path 1076" d="M959.116,454.628a3.147,3.147,0,1,1-3.147-3.147,3.147,3.147,0,0,1,3.147,3.147" transform="translate(6680.856 7328.576)" fill="#fff"/>
    <circle id="Ellipse_157" data-name="Ellipse 157" cx="3.147" cy="3.147" r="3.147" transform="matrix(0.924, -0.383, 0.383, 0.924, 7632.713, 7781.5)" fill="none" stroke="#878787" stroke-miterlimit="10" stroke-width="1"/>
    <path id="Path_1077" data-name="Path 1077" d="M955.9,457.862a3.3,3.3,0,1,1,3.3-3.3,3.306,3.306,0,0,1-3.3,3.3m0-6.294a2.991,2.991,0,1,0,2.991,2.991,2.994,2.994,0,0,0-2.991-2.991" transform="translate(6680.924 7328.644)" fill="#fff"/>
    <path id="Path_1078" data-name="Path 1078" d="M955.9,457.862a3.3,3.3,0,1,1,3.3-3.3A3.306,3.306,0,0,1,955.9,457.862Zm0-6.294a2.991,2.991,0,1,0,2.991,2.991A2.994,2.994,0,0,0,955.9,451.568Z" transform="translate(6680.924 7328.644)" fill="none" stroke="#000" stroke-miterlimit="10" stroke-width="1"/>
    <path id="Path_1079" data-name="Path 1079" d="M966.116,456.628a3.147,3.147,0,1,1-3.146-3.147,3.147,3.147,0,0,1,3.146,3.147" transform="translate(6678.719 7327.965)" fill="#fff"/>
    <path id="Path_1080" data-name="Path 1080" d="M966.116,456.628a3.147,3.147,0,1,1-3.146-3.147A3.147,3.147,0,0,1,966.116,456.628Z" transform="translate(6678.719 7327.965)" fill="none" stroke="#878787" stroke-miterlimit="10" stroke-width="1"/>
    <path id="Path_1081" data-name="Path 1081" d="M962.9,459.862a3.3,3.3,0,1,1,3.3-3.3,3.306,3.306,0,0,1-3.3,3.3m0-6.294a2.991,2.991,0,1,0,2.992,2.991,2.995,2.995,0,0,0-2.992-2.991" transform="translate(6678.787 7328.033)" fill="#fff"/>
    <path id="Path_1082" data-name="Path 1082" d="M962.9,459.862a3.3,3.3,0,1,1,3.3-3.3A3.306,3.306,0,0,1,962.9,459.862Zm0-6.294a2.991,2.991,0,1,0,2.992,2.991A2.995,2.995,0,0,0,962.9,453.569Z" transform="translate(6678.787 7328.033)" fill="none" stroke="#000" stroke-miterlimit="10" stroke-width="1"/>
    <path id="Path_1083" data-name="Path 1083" d="M968.675,463.9l-4.441,1.634a.432.432,0,0,1-.554-.256l-1.185-3.22a.43.43,0,0,1,.256-.554l4.44-1.634a.432.432,0,0,1,.554.256l1.185,3.221a.432.432,0,0,1-.256.554" transform="translate(6677.911 7326.023)"/>
  </g>
</svg>
