<svg xmlns="http://www.w3.org/2000/svg" width="34.589" height="33.997" viewBox="0 0 34.589 33.997">
  <g id="Group_3876" data-name="Group 3876" transform="translate(-6678.723 -6785.312)">
    <rect id="Rectangle_736" data-name="Rectangle 736" width="5.945" height="2.286" transform="matrix(0.707, -0.707, 0.707, 0.707, 6680.561, 6816.461)"/>
    <path id="Path_1093" data-name="Path 1093" d="M861.577,451.919l-6.883,3.236-19.741,20.879,2.509,2.509,20.891-19.729Z" transform="translate(5851.129 6334)"/>
    <path id="Path_1094" data-name="Path 1094" d="M861.577,451.919l-6.883,3.236-19.741,20.879,2.509,2.509,20.891-19.729Z" transform="translate(5851.129 6334)" stroke="#fff" stroke-linecap="round" stroke-miterlimit="10" stroke-width="0.583"/>
    <path id="Path_1095" data-name="Path 1095" d="M832.657,483.122l3.4,3.4,2.693.065-6.159-6.16Z" transform="translate(5851.642 6327.816)" fill="navy"/>
    <path id="Path_1096" data-name="Path 1096" d="M828.692,493.774c-.268.268-.991-.021-1.616-.647s-.915-1.348-.648-1.617.992.022,1.617.648.915,1.348.647,1.616" transform="translate(5853 6325.434)" fill="navy"/>
    <rect id="Rectangle_737" data-name="Rectangle 737" width="2.287" height="5.945" transform="matrix(0.707, -0.707, 0.707, 0.707, 6705.654, 6813.873)"/>
    <path id="Path_1097" data-name="Path 1097" d="M826.329,451.919l6.883,3.236,19.741,20.879-2.509,2.509-20.891-19.729Z" transform="translate(5853 6334)"/>
    <path id="Path_1098" data-name="Path 1098" d="M826.329,451.919l6.883,3.236,19.741,20.879-2.509,2.509-20.891-19.729Z" transform="translate(5853 6334)" stroke="#fff" stroke-linecap="round" stroke-miterlimit="10" stroke-width="0.583"/>
    <path id="Path_1099" data-name="Path 1099" d="M860.917,483.122l-3.4,3.4-2.694.065,6.16-6.16Z" transform="translate(5846.819 6327.816)" fill="navy"/>
    <path id="Path_1100" data-name="Path 1100" d="M865.905,493.774c.268.268.992-.021,1.616-.647s.915-1.348.648-1.617-.992.022-1.617.648-.915,1.348-.647,1.616" transform="translate(5844.437 6325.434)" fill="navy"/>
  </g>
</svg>
