<svg id="contact" xmlns="http://www.w3.org/2000/svg" width="70.892" height="70.892" viewBox="0 0 70.892 70.892">
  <g id="Group_3806" data-name="Group 3806" transform="translate(33.369 33.369)">
    <g id="Group_3805" data-name="Group 3805">
      <path id="Path_1059" data-name="Path 1059" d="M276.446,274.369H259.761a14.608,14.608,0,1,1,14.608-14.608,3.485,3.485,0,0,1-6.969,0,7.652,7.652,0,1,0-2.077,5.228,7.633,7.633,0,0,0,13.2-5.228,18.761,18.761,0,1,0-18.761,18.761h16.685a2.077,2.077,0,1,0,0-4.154Zm-16.685-11.123a3.485,3.485,0,1,1,3.485-3.484A3.488,3.488,0,0,1,259.761,263.246Z" transform="translate(-241 -241)" fill="#0c1d30"/>
    </g>
  </g>
  <g id="Group_3808" data-name="Group 3808">
    <g id="Group_3807" data-name="Group 3807">
      <path id="Path_1060" data-name="Path 1060" d="M49.644,29.35a22.1,22.1,0,1,0-30.832,12.47A28.821,28.821,0,0,0,0,68.815a2.077,2.077,0,0,0,2.077,2.077H38.988A22.907,22.907,0,0,1,49.644,29.35Z" fill="#0c1d30"/>
    </g>
  </g>
</svg>
