<svg xmlns="http://www.w3.org/2000/svg" width="25.49" height="25.492" viewBox="0 0 25.49 25.492">
  <g id="email_2_" data-name="email (2)" transform="translate(0 0)">
    <path id="Path_976" data-name="Path 976" d="M232.816,22.488,218.254,37.05a4.584,4.584,0,0,1,.575.876l3.7,7.74c.5,1.04,1.151,1.195,1.5,1.195h0c.309,0,1.072-.134,1.488-1.38l7.221-21.663a2.318,2.318,0,0,0,.084-1.329Zm0,0" transform="translate(-207.388 -21.368)" fill="#fff"/>
    <path id="Path_977" data-name="Path 977" d="M9.81,14.625,24.372.063A1.864,1.864,0,0,0,23.883,0a2.671,2.671,0,0,0-.841.148L1.38,7.369C.233,7.751.025,8.418,0,8.782s.1,1.051,1.193,1.572l7.74,3.7a4.587,4.587,0,0,1,.876.575Zm0,0" transform="translate(0 0)" fill="#fff"/>
  </g>
</svg>
