<svg xmlns="http://www.w3.org/2000/svg" width="31.321" height="30.748" viewBox="0 0 31.321 30.748">
  <g id="family_2_" data-name="family (2)" transform="translate(0 -1.442)">
    <path id="Path_1027" data-name="Path 1027" d="M9.944,269.083l.46-.517a5.508,5.508,0,0,1,.022-3.349,6.415,6.415,0,0,1-7.989-1.49A6.412,6.412,0,0,0,0,268.761v9.176a.918.918,0,0,0,.918.918h7.56a2.73,2.73,0,0,1-.158-.918v-4.588A6.409,6.409,0,0,1,9.944,269.083Z" transform="translate(0 -246.664)"/>
    <circle id="Ellipse_144" data-name="Ellipse 144" cx="4.604" cy="4.604" r="4.604" transform="translate(2.359 8.408)"/>
    <path id="Path_1028" data-name="Path 1028" d="M349.549,263.728a6.413,6.413,0,0,1-7.989,1.489,5.512,5.512,0,0,1,.022,3.349l.46.517a6.409,6.409,0,0,1,1.625,4.266v4.588a2.73,2.73,0,0,1-.158.918h7.56a.918.918,0,0,0,.918-.918v-9.176A6.412,6.412,0,0,0,349.549,263.728Z" transform="translate(-320.666 -246.664)"/>
    <circle id="Ellipse_145" data-name="Ellipse 145" cx="4.604" cy="4.604" r="4.604" transform="translate(19.753 8.408)"/>
    <path id="Path_1029" data-name="Path 1029" d="M171.506,373.336a5.5,5.5,0,0,1-4.345-2.128,4.567,4.567,0,0,0-1.16,3.046v4.588a.918.918,0,0,0,.918.918h9.176a.918.918,0,0,0,.918-.918v-4.588a4.567,4.567,0,0,0-1.16-3.046A5.5,5.5,0,0,1,171.506,373.336Z" transform="translate(-155.845 -347.569)"/>
    <ellipse id="Ellipse_146" data-name="Ellipse 146" cx="4.093" cy="3.581" rx="4.093" ry="3.581" transform="translate(11.568 16.593)"/>
    <path id="Path_1030" data-name="Path 1030" d="M178.568,9.328a17.283,17.283,0,0,0,2.4,1.843,1.032,1.032,0,0,0,1.082,0,17.28,17.28,0,0,0,2.4-1.843c1.7-1.575,2.568-3.106,2.568-4.551,0-3.281-3.263-4.821-5.505-3-2.248-1.827-5.505-.274-5.505,3C176,6.222,176.864,7.753,178.568,9.328Z" transform="translate(-165.845 0.44)" fill="navy"/>
  </g>
</svg>
