<svg id="Icon_24_circle-mark" data-name="Icon/24/circle-mark" xmlns="http://www.w3.org/2000/svg" width="67.609" height="67.609" viewBox="0 0 67.609 67.609">
  <g id="Icon_24_eye-hide" data-name="Icon/24/eye-hide">
    <rect id="base" width="67.609" height="67.609" fill="none"/>
    <path id="Combined_Shape" data-name="Combined Shape" d="M38.959,38.791l-6.082-5.935-1.329-1.29-3.02-2.936-.157-.152L22.727,23c-.063,0-.126.005-.19.005a3.334,3.334,0,0,1-3.38-3.286q0-.09.005-.179L11.9,12.492,7.962,8.767,2.916,3.755A2.154,2.154,0,0,1,2.331,1.63,2.229,2.229,0,0,1,3.93.076,2.3,2.3,0,0,1,6.113.644L9.967,4.389l3.311,3.22,9.073,8.828c.062,0,.124-.005.186-.005a3.335,3.335,0,0,1,3.38,3.286c0,.062,0,.123-.005.184l8.813,8.576,4.505,4.379,2.928,2.827a2.145,2.145,0,0,1,0,3.108,2.3,2.3,0,0,1-3.2,0ZM22.583,35.046C9.313,35.046,1.722,23.2.3,20.813a2.135,2.135,0,0,1,0-2.191,34.946,34.946,0,0,1,6.465-7.948L10.281,14l4.505,4.379a8.74,8.74,0,0,0-.134,1.336A7.56,7.56,0,0,0,17,25.176a8,8,0,0,0,5.646,2.206,9.237,9.237,0,0,0,1.374-.132l2.862,2.781.157.155,2.906,2.933.474.459a21.837,21.837,0,0,1-7.276,1.468Zm13.742-8.123-6.039-5.869a8.436,8.436,0,0,0,.137-1.336,7.777,7.777,0,0,0-7.885-7.664,9.237,9.237,0,0,0-1.374.132L14.855,6.052l-.2-.2a21.837,21.837,0,0,1,7.276-1.468C35.4,4,43.33,16.191,44.772,18.622a2.147,2.147,0,0,1,0,2.191,34.936,34.936,0,0,1-6.556,7.948Z" transform="translate(11.268 14.085)" fill="#707a89"/>
  </g>
</svg>
