<svg id="lock_3_" data-name="lock (3)" xmlns="http://www.w3.org/2000/svg" width="55.809" height="69.28" viewBox="0 0 55.809 69.28">
  <path id="Path_1019" data-name="Path 1019" d="M99.282,31.754a3.059,3.059,0,0,1-3.208-2.887V17.32c0-6.368-5.754-11.547-12.83-11.547s-12.83,5.178-12.83,11.547V28.867a3.225,3.225,0,0,1-6.415,0V17.32C64,7.768,72.631,0,83.245,0s19.245,7.768,19.245,17.32V28.867a3.059,3.059,0,0,1-3.207,2.887Zm0,0" transform="translate(-55.34)" fill="#0c1d30"/>
  <path id="Path_1020" data-name="Path 1020" d="M48.833,192H6.976A6.757,6.757,0,0,0,0,198.5v30.31A6.757,6.757,0,0,0,6.976,235.3H48.833a6.757,6.757,0,0,0,6.976-6.495V198.5A6.757,6.757,0,0,0,48.833,192Zm0,0" transform="translate(0 -166.02)" fill="#0c1d30"/>
</svg>
