<svg xmlns="http://www.w3.org/2000/svg" xmlns:xlink="http://www.w3.org/1999/xlink" width="59.645" height="75.795" viewBox="0 0 59.645 75.795">
  <defs>
    <linearGradient id="linear-gradient" x1="0.213" y1="0.248" x2="0.618" y2="0.933" gradientUnits="objectBoundingBox">
      <stop offset="0" stop-color="#edf5ff"/>
      <stop offset="1" stop-color="#b5dbff"/>
    </linearGradient>
    <linearGradient id="linear-gradient-2" x1="0.5" y1="0.807" x2="0.5" y2="-1.537" gradientUnits="objectBoundingBox">
      <stop offset="0" stop-color="#b5dbff" stop-opacity="0"/>
      <stop offset="0.243" stop-color="#93cef6" stop-opacity="0.243"/>
      <stop offset="0.576" stop-color="#6abfec" stop-opacity="0.576"/>
      <stop offset="0.84" stop-color="#51b5e5" stop-opacity="0.839"/>
      <stop offset="1" stop-color="#48b2e3"/>
    </linearGradient>
    <linearGradient id="linear-gradient-3" x1="0.236" y1="0.176" x2="0.679" y2="0.719" gradientUnits="objectBoundingBox">
      <stop offset="0" stop-color="#ffda2d"/>
      <stop offset="1" stop-color="#fdbf00"/>
    </linearGradient>
    <linearGradient id="linear-gradient-4" x1="1.005" y1="0.82" x2="-0.148" y2="-0.003" xlink:href="#linear-gradient-3"/>
    <linearGradient id="linear-gradient-5" x1="1.035" y1="0.797" x2="-0.186" y2="0.005" gradientUnits="objectBoundingBox">
      <stop offset="0" stop-color="#0b799d"/>
      <stop offset="1" stop-color="#07485e"/>
    </linearGradient>
    <linearGradient id="linear-gradient-6" x1="0.5" y1="0.526" x2="0.5" y2="1.018" gradientUnits="objectBoundingBox">
      <stop offset="0" stop-color="#ff9100" stop-opacity="0"/>
      <stop offset="1" stop-color="#ff9100"/>
    </linearGradient>
  </defs>
  <g id="password_5_" data-name="password (5)" transform="translate(-45.764 -46.37)">
    <g id="Group_44" data-name="Group 44" transform="translate(49.271 46.37)">
      <path id="Path_60" data-name="Path 60" d="M208.7,69.406h-.071a4.6,4.6,0,0,1-4.325-3.089,16.152,16.152,0,0,0-31.369,5.608v3.7h-9.21V71.73a25.363,25.363,0,0,1,49.3-8.39A4.568,4.568,0,0,1,208.7,69.406Z" transform="translate(-163.722 -46.37)" fill="url(#linear-gradient)"/>
      <path id="Path_61" data-name="Path 61" d="M220.581,81.715H219.3a4.6,4.6,0,0,1-4.325-3.089A16.152,16.152,0,0,0,183.6,84.234v3.7h-4.887V84.7a21.038,21.038,0,0,1,41.863-2.989Z" transform="translate(-174.395 -58.679)" fill="url(#linear-gradient-2)"/>
    </g>
    <g id="Group_50" data-name="Group 50" transform="translate(45.764 73.502)">
      <g id="Group_49" data-name="Group 49">
        <path id="Path_65" data-name="Path 65" d="M204.766,189.142H158a6.438,6.438,0,0,1-6.438-6.438V146.918A6.438,6.438,0,0,1,158,140.48h46.769a6.438,6.438,0,0,1,6.438,6.438V182.7A6.438,6.438,0,0,1,204.766,189.142Z" transform="translate(-151.559 -140.48)" fill="url(#linear-gradient-3)"/>
        <path id="Path_66" data-name="Path 66" d="M238.21,180.742a11.433,11.433,0,1,0-16.56,10.218v5.261a5.127,5.127,0,0,0,10.254,0V190.96A11.43,11.43,0,0,0,238.21,180.742Z" transform="translate(-196.954 -160.998)" fill="url(#linear-gradient-4)"/>
        <path id="Path_67" data-name="Path 67" d="M234.115,205.713a2.158,2.158,0,0,1-2.155-2.155v-7.094l-1.637-.823a8.461,8.461,0,1,1,7.584,0l-1.637.823v7.094A2.158,2.158,0,0,1,234.115,205.713Z" transform="translate(-204.292 -168.334)" fill="url(#linear-gradient-5)"/>
        <path id="Path_68" data-name="Path 68" d="M151.558,253.143v9.743A6.438,6.438,0,0,0,158,269.324h46.769a6.438,6.438,0,0,0,6.438-6.438v-9.743Z" transform="translate(-151.558 -220.662)" fill="url(#linear-gradient-6)"/>
      </g>
    </g>
  </g>
</svg>
