<svg xmlns="http://www.w3.org/2000/svg" width="28.484" height="30.409" viewBox="0 0 28.484 30.409">
  <g id="profits" transform="translate(-13.162)">
    <g id="Group_309" data-name="Group 309" transform="translate(20.974 20.394)">
      <g id="Group_308" data-name="Group 308">
        <rect id="Rectangle_610" data-name="Rectangle 610" width="1.389" height="10.014"/>
      </g>
    </g>
    <g id="Group_311" data-name="Group 311" transform="translate(26.749 18.713)">
      <g id="Group_310" data-name="Group 310">
        <rect id="Rectangle_611" data-name="Rectangle 611" width="1.389" height="11.696"/>
      </g>
    </g>
    <g id="Group_313" data-name="Group 313" transform="translate(15.273 26.681)">
      <g id="Group_312" data-name="Group 312">
        <rect id="Rectangle_612" data-name="Rectangle 612" width="1.316" height="3.728"/>
      </g>
    </g>
    <g id="Group_315" data-name="Group 315" transform="translate(32.451 14.473)">
      <g id="Group_314" data-name="Group 314">
        <rect id="Rectangle_613" data-name="Rectangle 613" width="1.389" height="15.935"/>
      </g>
    </g>
    <g id="Group_317" data-name="Group 317" transform="translate(38.226 10.672)">
      <g id="Group_316" data-name="Group 316">
        <rect id="Rectangle_614" data-name="Rectangle 614" width="1.316" height="19.736"/>
      </g>
    </g>
    <g id="Group_319" data-name="Group 319" transform="translate(13.162)">
      <g id="Group_318" data-name="Group 318">
        <path id="Path_348" data-name="Path 348" d="M41.435.2a.809.809,0,0,0-.526-.2H35.9a.731.731,0,1,0,0,1.462l3.231-.007-7.9,7.909L28.46,6.579a.708.708,0,0,0-1.038,0L13.387,20.628a.734.734,0,1,0,1.016,1.06c.007-.007.015-.015.022-.015L27.948,8.15l2.77,2.763a.748.748,0,0,0,.519.2.761.761,0,0,0,.519-.2l8.428-8.428-.007,3.224a.721.721,0,0,0,.724.724h.007a.721.721,0,0,0,.731-.716V5.709l.007-5A.751.751,0,0,0,41.435.2Z" transform="translate(-13.162)"/>
      </g>
    </g>
  </g>
</svg>
