<svg xmlns="http://www.w3.org/2000/svg" width="72.034" height="72.375" viewBox="0 0 72.034 72.375">
  <g id="smart-key" transform="translate(-1.205)">
    <path id="Path_1028" data-name="Path 1028" d="M378.5,93.426a2.946,2.946,0,1,0,2.084.862A2.938,2.938,0,0,0,378.5,93.426Z" transform="translate(-321.413 -80.216)" fill="#0c1d30"/>
    <path id="Path_1029" data-name="Path 1029" d="M67.267,5.972a20.389,20.389,0,0,0-34.674,12.1,20.5,20.5,0,0,0,2.546,12.42L1.205,64.428l7.606,7.606,3.974-3.974L17.1,72.375l7.109-7.109-4.315-4.315,5.325-5.325,4.315,4.315,7.109-7.109-4.315-4.315L42.744,38.1a20.506,20.506,0,0,0,12.42,2.546A20.389,20.389,0,0,0,73.239,20.389,20.256,20.256,0,0,0,67.267,5.972Zm-5.1,15.271a7.194,7.194,0,1,1,0-10.174,7.172,7.172,0,0,1,0,10.174Z" transform="translate(0)" fill="#0c1d30"/>
  </g>
</svg>
