<svg xmlns="http://www.w3.org/2000/svg" width="18.096" height="18.096" viewBox="0 0 18.096 18.096">
  <g id="user_26_" data-name="user (26)" transform="translate(0)">
    <g id="Group_12" data-name="Group 12" transform="translate(0 11.633)">
      <g id="Group_11" data-name="Group 11">
        <path id="Path_16" data-name="Path 16" d="M14.588,308.15l-2.751-.917a.647.647,0,0,0-.2-.034H6.463a.646.646,0,0,0-.2.034l-2.751.917A5.122,5.122,0,0,0,0,313.016a.646.646,0,0,0,.646.646h16.8a.646.646,0,0,0,.646-.646A5.122,5.122,0,0,0,14.588,308.15Z" transform="translate(0 -307.199)" fill="navy"/>
      </g>
    </g>
    <g id="Group_14" data-name="Group 14" transform="translate(5.17)">
      <g id="Group_13" data-name="Group 13">
        <path id="Path_17" data-name="Path 17" d="M140.411,0a3.878,3.878,0,0,0-3.878,3.878V6.463a3.878,3.878,0,0,0,7.755,0V3.878A3.878,3.878,0,0,0,140.411,0Z" transform="translate(-136.533)" fill="navy"/>
      </g>
    </g>
  </g>
</svg>
