<svg xmlns="http://www.w3.org/2000/svg" width="55.634" height="42.233" viewBox="0 0 55.634 42.233">
  <g id="user_25_" data-name="user (25)" transform="translate(0 -64)">
    <g id="Group_2" data-name="Group 2" transform="translate(0 64)">
      <g id="Group_1" data-name="Group 1" transform="translate(0 0)">
        <path id="Path_1" data-name="Path 1" d="M148.23,277.333c-6.739,0-20.23,3.376-20.23,10.115v5.058h40.461v-5.058C168.461,280.709,154.97,277.333,148.23,277.333Z" transform="translate(-112.827 -250.272)" fill="#fff"/>
        <path id="Path_2" data-name="Path 2" d="M223.449,84.23a10.115,10.115,0,1,0-10.115-10.115A10.12,10.12,0,0,0,223.449,84.23Z" transform="translate(-188.046 -64)" fill="#fff"/>
        <path id="Path_3" data-name="Path 3" d="M20.23,135.586H12.644V128H7.586v7.586H0v5.058H7.586v7.586h5.058v-7.586H20.23Z" transform="translate(0 -119.749)" fill="#fff"/>
      </g>
    </g>
  </g>
</svg>
